<svg xmlns="http://www.w3.org/2000/svg" xmlns:xlink="http://www.w3.org/1999/xlink" width="1366" zoomAndPan="magnify" viewBox="0 0 1024.5 488.999988" height="652" preserveAspectRatio="xMidYMid meet" version="1.0"><defs><clipPath id="8aa4032cc3"><path d="M 0 0.121094 L 1024 0.121094 L 1024 488.878906 L 0 488.878906 Z M 0 0.121094 " clip-rule="nonzero"/></clipPath><clipPath id="f366873d60"><path d="M 161.101562 93 L 204.582031 93 L 204.582031 136 L 161.101562 136 Z M 161.101562 93 " clip-rule="nonzero"/></clipPath><clipPath id="878591dcfe"><path d="M 172 91.875 L 204 91.875 L 204 131 L 172 131 Z M 172 91.875 " clip-rule="nonzero"/></clipPath><clipPath id="d60295e109"><path d="M 163 104 L 199 104 L 199 136.851562 L 163 136.851562 Z M 163 104 " clip-rule="nonzero"/></clipPath></defs><g clip-path="url(#8aa4032cc3)"><path fill="#ffffff" d="M 0 0.121094 L 1024 0.121094 L 1024 488.878906 L 0 488.878906 Z M 0 0.121094 " fill-opacity="1" fill-rule="nonzero"/><path fill="#ffffff" d="M 0 0.121094 L 1024 0.121094 L 1024 488.878906 L 0 488.878906 Z M 0 0.121094 " fill-opacity="1" fill-rule="nonzero"/></g><path fill="#000000" d="M 171.972656 109.371094 C 169.960938 109.371094 168.296875 110.953125 168.296875 112.921875 C 168.296875 114.890625 169.925781 116.472656 171.972656 116.472656 C 174.023438 116.472656 175.648438 114.890625 175.648438 112.921875 C 175.648438 110.953125 173.988281 109.371094 171.972656 109.371094 Z M 171.972656 115.101562 C 170.738281 115.101562 169.710938 114.117188 169.710938 112.957031 C 169.710938 111.796875 170.738281 110.8125 171.972656 110.8125 C 173.210938 110.8125 174.234375 111.796875 174.234375 112.957031 C 174.234375 114.117188 173.210938 115.101562 171.972656 115.101562 Z M 171.972656 115.101562 " fill-opacity="1" fill-rule="nonzero"/><path fill="#000000" d="M 170.878906 122.234375 C 170.878906 124.203125 172.503906 125.78125 174.554688 125.78125 C 176.605469 125.78125 178.230469 124.203125 178.230469 122.234375 C 178.230469 120.265625 176.605469 118.683594 174.554688 118.683594 C 172.503906 118.683594 170.878906 120.265625 170.878906 122.234375 Z M 176.816406 122.234375 C 176.816406 123.429688 175.789062 124.378906 174.554688 124.378906 C 173.316406 124.378906 172.292969 123.394531 172.292969 122.234375 C 172.292969 121.074219 173.316406 120.089844 174.554688 120.089844 C 175.789062 120.089844 176.816406 121.039062 176.816406 122.234375 Z M 176.816406 122.234375 " fill-opacity="1" fill-rule="nonzero"/><path fill="#000000" d="M 185.96875 128.277344 C 185.96875 126.308594 184.34375 124.730469 182.292969 124.730469 C 180.246094 124.730469 178.617188 126.308594 178.617188 128.277344 C 178.617188 130.246094 180.246094 131.828125 182.292969 131.828125 C 184.34375 131.828125 185.96875 130.246094 185.96875 128.277344 Z M 180.066406 128.277344 C 180.066406 127.082031 181.09375 126.132812 182.328125 126.132812 C 183.566406 126.132812 184.589844 127.117188 184.589844 128.277344 C 184.589844 129.4375 183.566406 130.421875 182.328125 130.421875 C 181.058594 130.457031 180.066406 129.472656 180.066406 128.277344 Z M 180.066406 128.277344 " fill-opacity="1" fill-rule="nonzero"/><path fill="#000000" d="M 179.324219 106.140625 C 179.785156 105.542969 180.066406 104.804688 180.066406 103.996094 C 180.066406 102.027344 178.441406 100.449219 176.390625 100.449219 C 175.4375 100.449219 174.589844 100.800781 173.917969 101.394531 C 174.414062 101.429688 174.871094 101.675781 175.226562 102.027344 L 175.332031 102.132812 C 175.648438 101.957031 176.003906 101.886719 176.390625 101.886719 C 177.628906 101.886719 178.652344 102.871094 178.652344 104.03125 C 178.652344 104.453125 178.511719 104.839844 178.335938 105.15625 Z M 179.324219 106.140625 " fill-opacity="1" fill-rule="nonzero"/><g clip-path="url(#f366873d60)"><path fill="#000000" d="M 161.792969 93.804688 C 161.40625 93.839844 161.160156 94.191406 161.195312 94.578125 C 161.230469 94.929688 161.546875 95.175781 161.902344 95.175781 C 163.5625 95.808594 164.199219 97.671875 164.90625 99.605469 C 165.824219 102.132812 166.917969 105.226562 170.808594 105.226562 C 170.878906 105.226562 170.984375 105.226562 171.054688 105.226562 C 171.019531 105.296875 171.019531 105.402344 171.019531 105.472656 C 171.019531 105.648438 171.089844 105.824219 171.230469 105.964844 L 201.238281 135.234375 C 201.664062 135.65625 202.226562 135.867188 202.722656 135.867188 C 203.148438 135.867188 203.570312 135.726562 203.855469 135.410156 C 204.527344 134.742188 204.453125 133.582031 203.675781 132.777344 L 174.199219 102.976562 C 174.09375 102.835938 173.917969 102.765625 173.707031 102.765625 C 173.671875 102.765625 173.601562 102.765625 173.5625 102.765625 C 172.257812 97.003906 167.203125 93.035156 161.792969 93.804688 Z M 181.375 112.21875 L 202.652344 133.757812 C 202.898438 134.003906 202.933594 134.320312 202.863281 134.425781 C 202.757812 134.53125 202.476562 134.496094 202.191406 134.25 L 180.527344 113.0625 Z M 173.707031 104.488281 L 180.386719 111.234375 L 179.503906 112.113281 L 172.714844 105.472656 Z M 166.210938 99.148438 C 165.71875 97.742188 165.1875 96.265625 164.234375 95.210938 C 168.15625 95.738281 171.515625 99.148438 172.292969 103.644531 C 168.15625 104.488281 167.308594 102.097656 166.210938 99.148438 Z M 166.210938 99.148438 " fill-opacity="1" fill-rule="nonzero"/></g><g clip-path="url(#878591dcfe)"><path fill="#000000" d="M 197.316406 109.476562 C 197.351562 109.476562 197.386719 109.476562 197.421875 109.476562 L 197.988281 109.335938 C 198.164062 109.300781 198.339844 109.164062 198.445312 109.023438 L 200.285156 105.929688 C 201.238281 104.3125 202.226562 102.660156 201.980469 100.519531 C 201.769531 98.726562 200.636719 97.003906 198.765625 95.597656 C 195.691406 93.277344 191.234375 91.875 187.101562 91.875 C 181.515625 91.875 176.355469 93.804688 172.363281 97.003906 C 172.644531 97.355469 172.929688 97.742188 173.175781 98.164062 C 176.957031 95.105469 181.835938 93.277344 187.101562 93.277344 C 190.953125 93.277344 195.054688 94.578125 197.84375 96.6875 C 198.941406 97.496094 200.285156 98.867188 200.53125 100.660156 C 200.742188 102.308594 199.964844 103.644531 199.046875 105.191406 L 197.386719 108.039062 L 197.136719 108.109375 C 195.054688 108.285156 193.144531 109.265625 191.871094 110.777344 C 190.742188 112.113281 190.210938 113.765625 190.351562 115.453125 C 190.457031 116.542969 190.847656 117.558594 191.449219 118.402344 L 193.144531 120.089844 C 194.488281 121.074219 196.21875 121.601562 198.058594 121.53125 L 198.410156 121.953125 C 198.730469 122.375 199.117188 122.832031 199.507812 123.289062 C 200.636719 124.625 202.050781 126.273438 202.050781 127.609375 C 202.050781 128.101562 202.015625 128.558594 201.910156 128.980469 L 203.042969 130.140625 C 203.324219 129.367188 203.464844 128.523438 203.464844 127.609375 C 203.464844 125.746094 201.910156 123.957031 200.566406 122.375 C 200.179688 121.917969 199.789062 121.460938 199.507812 121.074219 C 199.507812 121.074219 199.472656 121.039062 199.472656 121.039062 L 198.835938 120.335938 C 198.695312 120.160156 198.480469 120.089844 198.234375 120.089844 C 194.910156 120.371094 191.976562 118.191406 191.730469 115.277344 C 191.625 113.976562 192.050781 112.675781 192.933594 111.621094 C 193.992188 110.425781 195.582031 109.617188 197.316406 109.476562 Z M 197.316406 109.476562 " fill-opacity="1" fill-rule="nonzero"/></g><g clip-path="url(#d60295e109)"><path fill="#000000" d="M 166.105469 104.769531 C 164.691406 107.6875 163.878906 110.917969 163.878906 114.363281 C 163.878906 126.765625 174.304688 136.851562 187.136719 136.851562 C 189.539062 136.851562 194.699219 136.605469 198.625 134.671875 L 197.5625 133.617188 C 193.816406 135.304688 188.902344 135.445312 187.171875 135.445312 C 175.121094 135.445312 165.328125 125.992188 165.328125 114.363281 C 165.328125 111.269531 166.035156 108.320312 167.273438 105.683594 C 166.8125 105.402344 166.425781 105.121094 166.105469 104.769531 Z M 166.105469 104.769531 " fill-opacity="1" fill-rule="nonzero"/></g></svg>